<?xml version="1.0" encoding="UTF-8"?>
<svg width="1600" height="500" viewBox="0 0 1600 500" xmlns="http://www.w3.org/2000/svg" preserveAspectRatio="xMidYMid slice">
  <defs>
    <linearGradient id="bg" x1="0" x2="1">
      <stop offset="0%" stop-color="#e6f7ff"/>
      <stop offset="100%" stop-color="#dbeafe"/>
    </linearGradient>
  </defs>
  <rect width="100%" height="100%" fill="url(#bg)"/>
  <!-- stylized runway -->
  <rect x="0" y="380" width="1600" height="120" fill="#0b1220"/>
  <g fill="#fff" opacity="0.9">
    <rect x="280" y="440" width="80" height="6" rx="2"/>
    <rect x="480" y="440" width="80" height="6" rx="2"/>
    <rect x="680" y="440" width="80" height="6" rx="2"/>
    <rect x="880" y="440" width="80" height="6" rx="2"/>
  </g>
  <!-- plane silhouette taking off -->
  <g transform="translate(240,220) scale(1.2)" fill="#0f1724">
    <path d="M0 20 L120 0 L220 -10 L260 -4 L270 6 L240 18 L160 40 L60 48 Z"/>
    <rect x="30" y="20" width="140" height="8" rx="3"/>
  </g>
  <!-- contrail -->
  <g stroke="#fff" stroke-opacity="0.55" stroke-width="6" stroke-linecap="round" fill="none">
    <path d="M120 180 C260 150 460 120 640 110"/>
  </g>
</svg>
